PathFileType	4	(X/Y/Z)	D:\TRACE\v60_Jaco2_6-2-23\JustBodyDRS_Motion3_7-v60.trc
DataRate	CameraRate	NumFrames	NumMarkers	Units	OrigDataRate	OrigDataStartFrame	OrigNumFrames
100.00	100.00	      42	9	mm	100.00	5251	      7000
Frame#	Time	front left toe			Front right toe			aft left toe			aft right toe			Arm			FL body			FR body			AL Body			AR Body			
		X1	Y1	Z1	X2	Y2	Z2	X3	Y3	Z3	X4	Y4	Z4	X5	Y5	Z5	X6	Y6	Z6	X7	Y7	Z7	X8	Y8	Z8	X9	Y9	Z9	

5251	52.500	-186.24004	7.89074	-263.77768	196.48325	10.46295	-292.70111	-161.63559	22.29458	343.50415	204.48499	19.06585	346.22141	27.25450	1166.78613	-362.63257	-83.07057	522.24451	-446.71072	75.73314	520.21246	-453.04150	-37.97670	560.88062	495.95132	113.34614	550.04810	490.21231	
5252	52.510	-186.22639	9.88952	-264.51648	196.35020	10.24781	-291.78421	-161.19208	22.54111	344.24460	204.50032	20.60191	345.70233	27.55239	1167.57642	-363.10040	-83.20206	522.71631	-446.68112	75.42250	520.99579	-453.51498	-37.34669	561.99799	495.68109	113.99897	551.04474	489.26675	
5253	52.520	-182.96046	13.53049	-263.09802	195.18445	10.04078	-292.07425	-161.04681	22.07856	343.74020	202.78809	23.28081	347.67007	26.89940	1168.82007	-364.18051	-83.69495	523.77222	-447.15338	75.03716	522.00208	-453.99481	-36.51282	562.73248	495.60431	114.83627	551.74451	489.43732	
5254	52.530	-178.98477	16.98266	-259.51279	195.16353	10.20558	-292.35870	-161.55652	22.33869	343.78079	200.22711	27.48277	351.17664	26.31711	1169.84705	-364.95062	-83.91015	524.72461	-447.67642	74.88753	522.77948	-454.58029	-36.12497	562.83990	494.97519	115.08752	551.86029	488.79526	
5255	52.540	-176.49435	25.46173	-258.37500	195.23123	10.10908	-292.70654	-161.05962	21.60870	343.30798	197.81769	36.04212	352.39169	25.99474	1170.17163	-365.13794	-83.94192	525.07275	-447.90247	73.87252	523.46655	-454.37549	-35.77393	562.76520	494.44540	115.51348	551.90179	488.09738	
5256	52.550	-176.12769	34.51934	-258.62494	195.10724	9.75785	-292.62680	-160.83948	21.74765	343.42920	195.90959	44.99424	351.71939	25.28248	1170.46423	-365.21527	-83.94639	525.03912	-448.32913	74.08182	523.68250	-455.30215	-35.56156	562.87567	494.02792	116.11706	551.99847	487.12799	
5257	52.560	-177.03131	45.97860	-260.36407	195.36295	9.73484	-292.48447	-160.72832	21.59039	343.42520	196.56006	56.36019	349.60886	24.66451	1170.42383	-365.15427	-83.76789	524.92297	-448.78342	75.14622	523.36151	-455.77072	-35.50154	563.01514	493.82889	116.24403	552.07013	486.88086	
5258	52.570	-178.48918	57.65146	-262.25415	196.13266	9.96299	-292.11914	-160.79825	21.42685	343.55042	199.41156	68.53967	347.37262	24.67662	1170.10034	-365.26260	-83.47298	524.87018	-449.24545	75.52002	523.19629	-456.10831	-35.61361	562.75372	493.37045	116.39166	551.64832	486.61050	
5259	52.580	-180.02682	69.63611	-263.77484	196.24399	9.88567	-292.20923	-160.81473	20.87553	343.50363	202.04083	80.18150	345.11295	25.04584	1169.82581	-365.50272	-83.19163	524.63580	-449.62936	75.79588	523.02887	-456.30246	-35.92317	562.00543	493.17764	115.88668	551.27881	487.00665	
5260	52.590	-180.63857	80.72553	-265.64606	195.48419	9.58147	-292.40448	-161.02368	20.58402	343.50235	204.31229	91.40175	343.14774	25.83659	1169.42273	-365.59885	-82.72803	524.14648	-449.98901	76.09891	522.62952	-456.54242	-36.59760	561.22961	492.75342	115.01569	550.63708	486.72989	
5261	52.600	-180.99083	92.36361	-267.55960	195.51491	9.53336	-292.36957	-161.47108	20.85289	343.61966	205.62093	102.52086	341.22641	27.24657	1168.76294	-365.51877	-82.45060	523.83990	-450.21368	75.62901	522.34692	-456.52084	-36.95654	560.72070	492.36740	114.59560	550.16638	486.45380	
5262	52.610	-181.12875	103.00330	-269.30624	196.42125	9.80041	-292.21384	-161.44164	20.83957	343.61929	205.73453	113.28234	339.81796	27.48018	1168.39941	-365.72052	-82.04311	523.46515	-450.25488	75.90544	521.99200	-456.75027	-37.12825	560.60901	492.05997	114.49654	549.92645	486.28076	
5263	52.620	-181.28787	112.86196	-270.78134	196.64124	9.84738	-292.02646	-160.92906	20.45333	343.47943	205.56882	123.46346	338.38736	27.67257	1168.05530	-365.99039	-81.93012	523.29236	-450.66171	76.12860	521.71307	-457.07669	-37.20911	560.54047	491.90039	114.30134	549.90149	486.13669	
5264	52.630	-181.90405	121.69092	-272.09839	196.82901	9.94483	-291.95059	-160.96330	20.39774	343.45975	205.83821	132.90414	337.60120	27.87610	1167.86584	-366.34106	-81.62413	522.63318	-450.88263	77.06816	521.17725	-457.35086	-37.50872	560.46759	491.80368	114.10786	549.91711	486.07553	
5265	52.640	-182.86253	129.15880	-273.25656	196.97084	10.02721	-291.81940	-160.98366	20.28103	343.55109	204.85431	140.71623	335.64548	27.59111	1167.85718	-366.82144	-81.41081	522.25317	-451.18622	77.28227	520.74268	-457.40668	-37.95333	560.62714	491.63287	113.71951	549.83856	486.09067	
5266	52.650	-183.81514	135.28123	-274.38367	197.04822	9.99031	-291.64575	-161.03107	20.13279	343.61026	204.67877	146.59010	334.15503	27.31479	1167.38086	-367.57135	-80.94270	521.82581	-451.19406	77.87680	520.32861	-457.37442	-38.58346	560.77734	491.48022	113.21233	549.86346	486.11429	
5267	52.660	-184.64949	140.04869	-275.42303	197.05000	10.02463	-291.55972	-161.02576	20.06444	343.56573	205.73294	150.13235	333.34634	27.98275	1166.81714	-368.04425	-80.51065	521.60339	-451.23911	78.26961	520.07794	-457.41367	-39.15538	560.87921	491.27386	112.91936	550.02533	486.14319	
5268	52.670	-185.37566	140.71628	-275.68036	196.97961	10.03914	-291.51642	-160.95593	20.08278	343.54141	207.53607	150.94670	332.92218	28.13057	1166.59778	-368.70035	-80.32234	521.47968	-451.48062	78.55015	519.98151	-457.34695	-39.64910	561.14063	491.09824	112.07580	550.43219	486.10074	
5269	52.680	-185.79121	138.37721	-275.86154	197.09979	10.12423	-291.43039	-161.29913	20.41821	343.60114	208.63271	149.06683	332.79138	28.54999	1166.41345	-368.75766	-79.86777	521.20715	-451.71811	78.85870	519.90942	-457.40454	-40.31452	561.30371	490.77115	112.02037	550.57727	486.06357	
5270	52.690	-185.42630	134.11360	-276.16043	197.09918	10.12308	-291.44250	-161.35422	20.24467	343.63306	208.13983	145.01036	332.82211	29.12181	1166.43628	-368.67221	-79.53770	521.06232	-451.87134	79.06542	519.76367	-457.37842	-40.66339	561.43060	490.78180	111.26008	550.65851	485.97583	
5271	52.700	-185.05309	129.07709	-276.70596	197.08815	10.16690	-291.44064	-161.41922	20.00388	343.75250	207.77376	140.42612	332.66913	29.48071	1166.44116	-368.50787	-79.27934	520.97083	-451.95026	79.37913	519.64008	-457.35214	-41.12401	561.35352	490.73337	110.66180	550.63275	485.95657	
5272	52.710	-184.42989	123.15714	-277.49579	197.19928	10.16970	-291.35364	-161.46219	19.81580	343.83182	207.67506	134.91977	332.58743	29.47537	1166.52039	-368.36838	-79.06188	520.96106	-452.18661	79.71120	519.61194	-457.36456	-41.61048	560.98218	490.57703	109.95427	550.58319	485.85632	
5273	52.720	-184.13737	117.25594	-278.71631	197.17400	10.19185	-291.36221	-161.42015	19.64154	343.70917	206.02959	127.49840	331.98898	28.94259	1166.60278	-368.42020	-78.95804	521.05469	-452.43744	79.14196	519.81982	-457.19150	-42.03425	560.83929	490.46069	110.11214	550.30621	485.56543	
5274	52.730	-184.46342	111.16672	-280.33105	197.27304	10.30118	-291.29004	-161.46248	19.55361	343.66519	205.54500	120.27445	331.02756	28.61619	1166.48450	-368.46246	-78.66593	521.11169	-452.62488	79.57990	519.92316	-457.30157	-42.63392	560.66272	490.18582	109.47261	550.08093	485.57199	
5275	52.740	-184.82155	104.32108	-281.85849	197.42596	10.44920	-291.09625	-161.60251	19.42472	343.55011	205.49757	112.85307	329.65500	28.27266	1166.53833	-368.47470	-78.17902	521.07037	-452.67191	80.54359	519.91608	-457.60764	-43.20876	560.47565	490.00128	108.77483	549.85815	485.80679	
5276	52.750	-185.37325	97.26609	-283.04419	197.51901	10.57655	-291.00092	-161.62505	19.16318	343.60559	205.07643	104.97309	328.34970	28.12290	1166.61145	-368.41687	-77.93130	521.02600	-452.76370	80.69312	519.91187	-457.68613	-43.83267	560.20697	489.73792	108.20973	549.53601	485.74924	
5277	52.760	-185.43300	89.30774	-283.90814	197.51663	10.64358	-290.99762	-161.66469	18.85938	343.68744	205.61917	97.16544	327.35904	28.18248	1166.63367	-368.32602	-77.75543	520.94244	-452.90796	80.86432	519.96417	-457.73038	-44.40477	559.95044	489.86331	107.98356	549.48126	485.74805	
5278	52.770	-185.82292	80.70635	-284.54999	197.52911	10.74641	-290.95752	-161.68690	18.72795	343.64490	205.49191	88.33237	326.64792	28.34922	1166.63623	-368.17981	-77.57589	520.92737	-453.04895	81.06119	520.01654	-457.81317	-44.63501	559.85187	489.81027	107.71059	549.48761	485.72360	
5279	52.780	-185.76521	71.83718	-285.01288	197.41420	10.84468	-290.94516	-161.65041	18.72536	343.61392	205.27411	79.50766	326.22006	28.27619	1166.76379	-368.16559	-77.53834	521.10126	-453.35513	81.18059	520.15332	-457.96854	-45.06533	559.66168	489.46194	107.20271	549.60321	485.62766	
5280	52.790	-185.85350	63.18654	-285.12506	197.43573	10.89391	-290.90854	-161.63530	18.70378	343.56021	205.12585	71.19069	326.16959	28.49206	1166.77087	-368.18115	-77.61201	521.40100	-453.78433	81.40422	520.25519	-458.10101	-45.65290	559.60907	489.28564	106.88544	549.58398	485.54419	
5281	52.800	-186.06885	54.40482	-284.65491	197.35565	10.94328	-290.88065	-161.60657	18.50955	343.57037	204.61066	62.77019	325.94781	28.56998	1166.73364	-368.33322	-77.61890	521.34906	-454.01779	81.47751	520.19568	-458.25778	-46.38353	559.79327	489.14783	106.24606	549.43976	485.46539	
5282	52.810	-185.62857	45.28385	-283.76129	197.42003	10.94591	-290.87985	-161.63794	18.34672	343.56787	204.14067	54.85936	325.86130	28.35871	1166.74023	-368.64447	-77.36599	520.99969	-454.22028	81.63664	520.05933	-458.26855	-46.99949	559.50702	488.85510	105.45968	549.22174	485.28656	
5283	52.820	-186.50136	38.29990	-283.59351	197.35352	10.94199	-290.84735	-161.63994	18.28134	343.60867	203.96898	47.43641	326.12616	28.27684	1166.61743	-368.83755	-77.07772	520.77960	-454.38101	81.78995	519.81213	-458.34872	-47.24245	559.44977	488.57285	105.03125	549.07141	485.12283	
5284	52.830	-187.31992	31.88975	-283.08426	197.40079	11.06833	-290.73953	-161.67357	18.27647	343.60056	203.48320	40.24456	326.22058	28.07573	1166.37219	-369.20135	-76.90162	520.71326	-454.60321	81.83040	519.71002	-458.61197	-47.47285	559.55481	488.67719	104.63597	549.02240	484.94052	
5285	52.840	-187.70946	25.68687	-282.94824	197.32224	11.14217	-290.71988	-161.62306	18.22134	343.58612	203.01749	34.12746	326.61667	28.29410	1166.11511	-369.66586	-76.74321	520.50397	-454.85965	81.95551	519.48450	-458.79514	-47.75042	559.69244	488.38242	104.42196	549.04004	484.69867	
5286	52.850	-188.23669	19.54413	-282.89700	197.41905	11.18421	-290.64774	-161.14885	17.74519	343.45697	202.50809	27.82457	326.81512	28.81254	1165.89160	-370.03116	-76.68053	520.35052	-455.14883	82.01316	519.15997	-459.06143	-48.44395	559.67139	487.82980	104.15279	549.05811	484.50540	
5287	52.860	-188.68839	13.55037	-283.26990	197.40010	11.19374	-290.60217	-161.21480	17.64012	343.47687	202.53955	21.13631	326.97070	29.36994	1165.66785	-370.28638	-76.74366	519.94452	-455.55380	81.31926	518.96289	-459.05084	-48.86785	559.50629	487.38528	103.78725	548.98926	484.28024	
5288	52.870	-189.59213	13.86910	-285.49872	197.27449	11.10610	-290.65277	-161.18315	17.52707	343.48047	202.53494	20.80713	324.26700	29.70371	1165.24939	-370.62732	-76.87265	519.95465	-456.02121	81.38275	518.81531	-459.29581	-49.24903	559.65820	487.12033	102.74349	549.13251	483.77036	
5289	52.880	-189.88324	11.16928	-284.33585	197.19789	11.15344	-290.58014	-161.12405	17.62769	343.45438	203.03812	17.72845	325.38663	29.71114	1165.34949	-371.05624	-76.64641	520.08453	-456.35825	82.25143	518.82056	-459.75775	-49.63678	560.32996	486.84247	102.28866	549.94781	483.72162	
5290	52.890	-189.92532	13.03088	-285.14114	197.25284	11.24741	-290.64133	-161.57867	18.38455	343.35461	203.44872	19.11113	324.75302	30.16858	1165.94666	-371.98813	-76.35026	520.30841	-456.60547	82.53367	519.29919	-459.95734	-50.53702	562.14099	486.45920	100.94304	551.70551	483.26990	
5291	52.900	-189.49092	12.06229	-284.10489	197.77888	12.93518	-290.37451	-161.55975	19.99417	343.25986	202.86235	18.60720	325.67838	30.61576	1166.59412	-372.69064	-75.86587	520.62030	-456.76901	83.12196	519.55908	-459.88388	-50.83075	563.54749	486.23788	101.33239	553.59338	483.55185	
5292	52.910	-189.44791	11.67118	-284.15198	194.77762	15.25350	-288.49323	-159.15607	22.19430	344.49954	202.74179	17.95843	326.62494	30.00345	1167.29614	-374.38208	-75.43571	521.29602	-457.03970	83.31597	520.17224	-460.09689	-51.43727	564.46613	485.92123	100.77924	554.52295	483.38733	
